<svg width="16" height="16" fill="none" xmlns="http://www.w3.org/2000/svg"><path d="M14.42 10.967H5.115l.468-.951 7.762-.014a.543.543 0 0 0 .535-.447l1.075-6.018a.543.543 0 0 0-.533-.639l-9.875-.032-.085-.397a.555.555 0 0 0-.54-.438H1.508a.552.552 0 1 0 0 1.103h1.967l.369 1.754.907 4.395-1.168 1.908a.546.546 0 0 0-.047.575.55.55 0 0 0 .492.303h.981a1.604 1.604 0 0 0 1.281 2.567 1.604 1.604 0 0 0 1.282-2.567h2.517a1.604 1.604 0 0 0 1.281 2.567 1.604 1.604 0 0 0 1.281-2.567h1.77a.552.552 0 0 0 .552-.552.553.553 0 0 0-.553-.55ZM4.776 3.953l8.997.03-.88 4.934-7.068.013-1.049-4.977Zm1.514 9.574a.495.495 0 0 1 0-.988.495.495 0 0 1 0 .988Zm5.08 0a.495.495 0 0 1 0-.988.495.495 0 0 1 0 .988Z" fill="#8C8C8C"/></svg>