<svg width="16.000000" height="16.000000" viewBox="0 0 16 16" fill="none" xmlns="http://www.w3.org/2000/svg" xmlns:xlink="http://www.w3.org/1999/xlink">
	<desc>
			Created with Pixso.
	</desc>
	<defs>
		<clipPath id="clip21_207">
			<rect id="icon/outlined/application/shopping-cart" rx="-0.500000" width="15.000000" height="15.000000" transform="translate(0.500000 0.500000)" fill="white" fill-opacity="0"/>
		</clipPath>
	</defs>
	<rect id="icon/outlined/application/shopping-cart" rx="-0.500000" width="15.000000" height="15.000000" transform="translate(0.500000 0.500000)" fill="#FFFFFF" fill-opacity="0"/>
	<g clip-path="url(#clip21_207)">
		<path id="Vector" d="M14.42 10.96L5.11 10.96L5.58 10.01L13.34 10C13.6 10 13.83 9.81 13.87 9.55L14.95 3.53C14.98 3.37 14.94 3.21 14.83 3.09C14.78 3.03 14.72 2.98 14.65 2.95C14.57 2.91 14.5 2.89 14.42 2.89L4.54 2.86L4.46 2.46C4.4 2.21 4.18 2.03 3.92 2.03L1.5 2.03C1.36 2.03 1.22 2.08 1.11 2.19C1.01 2.29 0.95 2.43 0.95 2.58C0.95 2.72 1.01 2.86 1.11 2.97C1.22 3.07 1.36 3.13 1.5 3.13L3.47 3.13L3.84 4.88L4.75 9.28L3.58 11.19C3.52 11.27 3.48 11.36 3.47 11.47C3.46 11.57 3.48 11.67 3.53 11.76C3.62 11.95 3.81 12.06 4.02 12.06L5 12.06C4.8 12.34 4.68 12.68 4.68 13.03C4.68 13.91 5.4 14.63 6.29 14.63C7.17 14.63 7.89 13.91 7.89 13.03C7.89 12.68 7.77 12.34 7.57 12.06L10.08 12.06C9.87 12.34 9.76 12.68 9.76 13.03C9.76 13.91 10.48 14.63 11.37 14.63C12.25 14.63 12.97 13.91 12.97 13.03C12.97 12.68 12.85 12.34 12.65 12.06L14.42 12.06C14.72 12.06 14.97 11.82 14.97 11.51C14.97 11.37 14.91 11.23 14.81 11.12C14.7 11.02 14.56 10.96 14.42 10.96ZM4.77 3.95L13.77 3.98L12.89 8.91L5.82 8.92L4.77 3.95ZM6.29 13.52C6.01 13.52 5.79 13.3 5.79 13.03C5.79 12.76 6.01 12.53 6.29 12.53C6.56 12.53 6.78 12.76 6.78 13.03C6.78 13.16 6.73 13.28 6.63 13.38C6.54 13.47 6.42 13.52 6.29 13.52ZM11.37 13.52C11.09 13.52 10.87 13.3 10.87 13.03C10.87 12.76 11.09 12.53 11.37 12.53C11.64 12.53 11.86 12.76 11.86 13.03C11.86 13.16 11.81 13.28 11.71 13.38C11.62 13.47 11.5 13.52 11.37 13.52Z" fill="#FFFFFF" fill-opacity="1.000000" fill-rule="nonzero"/>
	</g>
</svg>
