<svg width="16" height="16" fill="none" xmlns="http://www.w3.org/2000/svg"><path d="M13.414 11.931a5.842 5.842 0 0 0-1.259-1.867 5.87 5.87 0 0 0-1.867-1.26l-.019-.007a3.874 3.874 0 1 0-4.537.002l-.02.007c-.7.296-1.327.719-1.866 1.26a5.87 5.87 0 0 0-1.72 4.025.125.125 0 0 0 .124.128h.938a.125.125 0 0 0 .125-.122 4.658 4.658 0 0 1 1.372-3.192A4.657 4.657 0 0 1 8 9.53c1.253 0 2.43.488 3.316 1.374a4.658 4.658 0 0 1 1.372 3.192.124.124 0 0 0 .125.122h.937a.125.125 0 0 0 .125-.128 5.82 5.82 0 0 0-.46-2.16ZM8 8.344a2.67 2.67 0 0 1-1.9-.788 2.67 2.67 0 0 1-.787-1.9c0-.717.28-1.392.787-1.9A2.67 2.67 0 0 1 8 2.97c.717 0 1.392.28 1.9.787a2.67 2.67 0 0 1 .788 1.9 2.67 2.67 0 0 1-.788 1.9 2.67 2.67 0 0 1-1.9.788Z" fill="#fff"/></svg>